<?xml version='1.0' encoding='utf-8'?>
<svg xmlns="http://www.w3.org/2000/svg" clip-rule="evenodd" fill-rule="evenodd" stroke-linejoin="round" stroke-miterlimit="2" version="1.1" viewBox="0 0 500 500"> <path d="m250 43.956c113.72 0 206.04 92.325 206.04 206.04s-92.325 206.04-206.04 206.04-206.04-92.325-206.04-206.04 92.325-206.04 206.04-206.04zm132.48 96.818c24.515 29.691 39.25 67.751 39.25 109.23 0 94.778-76.948 171.73-171.73 171.73-41.475 0-79.535-14.735-109.23-39.25l241.7-241.7zm-23.25-23.25-241.7 241.7c-24.515-29.691-39.25-67.751-39.25-109.23 0-94.778 76.948-171.73 171.73-171.73 41.475 0 79.535 14.735 109.23 39.25z" fill="#f12222"/> </svg>